<?xml version="1.0" encoding="UTF-8"?>
<svg xmlns="http://www.w3.org/2000/svg" xmlns:xlink="http://www.w3.org/1999/xlink" viewBox="0 0 256 256" width="256px" height="256px">
<defs>
<radialGradient id="radial0" gradientUnits="userSpaceOnUse" cx="113" cy="93.578133" fx="113" fy="93.578133" r="103.744591" gradientTransform="matrix(1.132743,0,0,1.132743,0,0)">
<stop offset="0" style="stop-color:rgb(100%,95.686275%,95.686275%);stop-opacity:1;"/>
<stop offset="0.193" style="stop-color:rgb(69.803923%,69.803923%,69.803923%);stop-opacity:1;"/>
<stop offset="0.703" style="stop-color:rgb(68.235296%,89.803922%,100%);stop-opacity:1;"/>
<stop offset="1" style="stop-color:rgb(80.392158%,95.294118%,100%);stop-opacity:1;"/>
</radialGradient>
<linearGradient id="linear0" gradientUnits="userSpaceOnUse" x1="113" y1="176.731995" x2="113" y2="28.25" gradientTransform="matrix(1.132743,0,0,1.132743,0,0)">
<stop offset="0" style="stop-color:rgb(98.039216%,98.039216%,98.039216%);stop-opacity:1;"/>
<stop offset="1" style="stop-color:rgb(100%,100%,100%);stop-opacity:1;"/>
<stop offset="1" style="stop-color:rgb(100%,100%,100%);stop-opacity:1;"/>
</linearGradient>
<linearGradient id="linear1" gradientUnits="userSpaceOnUse" x1="113" y1="209.565567" x2="113" y2="220.85144" gradientTransform="matrix(1.132743,0,0,1.132743,0,0)">
<stop offset="0" style="stop-color:rgb(34.117648%,34.117648%,34.117648%);stop-opacity:1;"/>
<stop offset="1" style="stop-color:rgb(46.666667%,46.666667%,46.666667%);stop-opacity:1;"/>
</linearGradient>
<linearGradient id="linear2" gradientUnits="userSpaceOnUse" x1="113" y1="211.875" x2="113" y2="173.03125" gradientTransform="matrix(1.132743,0,0,1.132743,0,0)">
<stop offset="0" style="stop-color:rgb(57.647061%,78.431374%,91.764706%);stop-opacity:1;"/>
<stop offset="0.243" style="stop-color:rgb(30.19608%,78.039217%,93.725491%);stop-opacity:1;"/>
<stop offset="0.674" style="stop-color:rgb(42.352942%,83.92157%,96.470588%);stop-opacity:1;"/>
<stop offset="1" style="stop-color:rgb(41.568628%,84.313726%,90.588236%);stop-opacity:1;"/>
</linearGradient>
<linearGradient id="linear3" gradientUnits="userSpaceOnUse" x1="113" y1="173.03125" x2="113" y2="208.280197" gradientTransform="matrix(1.132743,0,0,1.132743,0,0)">
<stop offset="0" style="stop-color:rgb(25.098041%,78.039217%,93.333334%);stop-opacity:1;"/>
<stop offset="0.394" style="stop-color:rgb(22.352941%,76.47059%,92.941177%);stop-opacity:1;"/>
<stop offset="0.948" style="stop-color:rgb(15.294118%,72.156864%,90.980393%);stop-opacity:1;"/>
<stop offset="1" style="stop-color:rgb(14.509805%,71.764708%,90.980393%);stop-opacity:1;"/>
</linearGradient>
<linearGradient id="linear4" gradientUnits="userSpaceOnUse" x1="113" y1="151.600082" x2="113" y2="63.31884" gradientTransform="matrix(1.132743,0,0,1.132743,0,0)">
<stop offset="0" style="stop-color:rgb(86.274511%,86.274511%,86.274511%);stop-opacity:1;"/>
<stop offset="0.119" style="stop-color:rgb(86.274511%,86.274511%,86.274511%);stop-opacity:1;"/>
<stop offset="1" style="stop-color:rgb(91.764706%,91.764706%,91.764706%);stop-opacity:1;"/>
</linearGradient>
</defs>
<g id="surface2262985">
<path style=" stroke:none;fill-rule:nonzero;fill:url(#radial0);" d="M 224 188 C 230.601562 188 236 193.398438 236 200 C 236 206.601562 230.601562 212 224 212 C 217.398438 212 212 206.601562 212 200 C 212 193.398438 217.398438 188 224 188 Z M 16 12 C 16 18.601562 21.398438 24 28 24 C 34.601562 24 40 18.601562 40 12 C 40 5.398438 34.601562 0 28 0 C 21.398438 0 16 5.398438 16 12 Z M 256 112 C 256 118.601562 250.601562 124 244 124 L 226 124 C 220.5 124 216 128.5 216 134 C 216 139.5 220.5 144 226 144 L 230 144 C 237.699219 144 244 150.300781 244 158 C 244 165.699219 237.699219 172 230 172 L 192 172 C 187.601562 172 184 175.601562 184 180 C 184 184.398438 187.601562 188 192 188 C 198.601562 188 204 193.398438 204 200 C 204 206.601562 198.601562 212 192 212 L 128 212 C 121.398438 212 116 206.601562 116 200 L 44 200 C 37.398438 200 32 194.601562 32 188 C 32 181.398438 37.398438 176 44 176 L 48 176 C 54.601562 176 60 170.601562 60 164 C 60 157.398438 54.601562 152 48 152 L 22 152 C 14.300781 152 8 145.699219 8 138 C 8 130.300781 14.300781 124 22 124 L 28 124 C 32.398438 124 36 120.398438 36 116 C 36 111.601562 32.398438 108 28 108 L 14 108 C 6.300781 108 0 101.699219 0 94 C 0 86.300781 6.300781 80 14 80 L 36 80 C 40.398438 80 44 76.398438 44 72 C 44 67.601562 40.398438 64 36 64 L 28 64 C 21.398438 64 16 58.601562 16 52 C 16 45.398438 21.398438 40 28 40 L 64 40 C 68.398438 40 72 36.398438 72 32 C 72 27.601562 68.398438 24 64 24 L 60 24 C 53.398438 24 48 18.601562 48 12 C 48 5.398438 53.398438 0 60 0 L 204 0 C 210.601562 0 216 5.398438 216 12 C 216 18.601562 210.601562 24 204 24 C 197.398438 24 192 29.398438 192 36 C 192 42.601562 197.398438 48 204 48 L 234 48 C 241.699219 48 248 54.300781 248 62 C 248 69.699219 241.699219 76 234 76 L 228 76 C 221.398438 76 216 81.398438 216 88 C 216 94.601562 221.398438 100 228 100 L 244 100 C 250.601562 100 256 105.398438 256 112 Z M 256 112 "/>
<path style=" stroke:none;fill-rule:nonzero;fill:url(#linear0);" d="M 204 108.628906 C 204 63.199219 165.371094 27.199219 119.160156 32.523438 C 84.050781 36.648438 55.964844 64.976562 52.46875 100.375 C 49.542969 127.503906 60.652344 151.703125 79.367188 167.03125 C 87.570312 174.132812 96 184.800781 96 196 L 96.59375 200.191406 L 159.277344 200.191406 L 160 196 C 160 185.394531 167.726562 175.304688 175.910156 168.230469 C 192.890625 154.054688 204 132.828125 204 108.628906 Z M 204 108.628906 "/>
<path style=" stroke:none;fill-rule:nonzero;fill:url(#linear1);" d="M 144 236 C 144 244.832031 136.832031 252 128 252 C 119.167969 252 112 244.832031 112 236 C 112 227.167969 119.167969 220 128 220 C 136.832031 220 144 227.167969 144 236 Z M 144 236 "/>
<path style=" stroke:none;fill-rule:nonzero;fill:url(#linear2);" d="M 140 240 L 116 240 C 104.957031 240 96 231.042969 96 220 L 96 196 L 160 196 L 160 220 C 160 231.042969 151.042969 240 140 240 Z M 140 240 "/>
<path style=" stroke:none;fill-rule:nonzero;fill:url(#linear3);" d="M 160 196 L 160 208 L 96 217.0625 L 96 205.0625 Z M 104.019531 235.929688 L 158.167969 228.261719 C 159.320312 225.734375 160 222.957031 160 220 L 160 216 L 96.695312 224.964844 C 97.839844 229.414062 100.457031 233.238281 104.019531 235.929688 Z M 104.019531 235.929688 "/>
<path style=" stroke:none;fill-rule:nonzero;fill:url(#linear4);" d="M 155.3125 100.6875 C 149.0625 94.441406 138.933594 94.441406 132.683594 100.6875 C 129.5625 103.8125 128 107.902344 128 112 C 128 107.902344 126.4375 103.8125 123.3125 100.6875 C 117.0625 94.441406 106.933594 94.441406 100.683594 100.6875 C 94.4375 106.9375 94.4375 117.066406 100.683594 123.316406 L 112 134.628906 L 112 196 L 144 196 L 144 134.628906 L 155.3125 123.316406 C 161.5625 117.0625 161.5625 106.9375 155.3125 100.6875 Z M 155.3125 100.6875 "/>
</g>
</svg>
